<svg width="40" height="40" viewBox="0 0 40 40" fill="none" xmlns="http://www.w3.org/2000/svg">
<path d="M33.3332 16.6667C33.3332 27.5 19.9998 36.6667 19.9998 36.6667C19.9998 36.6667 6.6665 27.5 6.6665 16.6667C6.6665 13.1305 8.07126 9.73907 10.5717 7.23859C13.0722 4.7381 16.4636 3.33334 19.9998 3.33334C23.5361 3.33334 26.9274 4.7381 29.4279 7.23859C31.9284 9.73907 33.3332 13.1305 33.3332 16.6667Z" stroke="black" stroke-width="2"/>
<path d="M25 16.6667C25 17.9928 24.4732 19.2645 23.5355 20.2022C22.5979 21.1399 21.3261 21.6667 20 21.6667C18.6739 21.6667 17.4021 21.1399 16.4645 20.2022C15.5268 19.2645 15 17.9928 15 16.6667C15 15.3406 15.5268 14.0688 16.4645 13.1312C17.4021 12.1935 18.6739 11.6667 20 11.6667C21.3261 11.6667 22.5979 12.1935 23.5355 13.1312C24.4732 14.0688 25 15.3406 25 16.6667Z" stroke="black" stroke-width="2"/>
</svg>
