<svg width="60" height="60" viewBox="0 0 60 60" fill="none" xmlns="http://www.w3.org/2000/svg">
<path d="M33.084 0C36.4589 0.00899978 38.1718 0.0269994 39.6507 0.0689983L40.2327 0.0899977C40.9046 0.113997 41.5676 0.143996 42.3686 0.179995C45.5604 0.329992 47.7383 0.83398 49.6492 1.57496C51.6291 2.33694 53.297 3.36892 54.9649 5.03388C56.4909 6.53304 57.6714 8.34721 58.4238 10.3497C59.1647 12.2607 59.6687 14.4386 59.8187 17.6336C59.8547 18.4316 59.8847 19.0945 59.9087 19.7695L59.9267 20.3515C59.9717 21.8275 59.9897 23.5404 59.9957 26.9153L59.9987 29.1533V33.0832C60.006 35.2714 59.983 37.4595 59.9297 39.647L59.9117 40.229C59.8877 40.904 59.8577 41.567 59.8217 42.365C59.6717 45.5599 59.1617 47.7348 58.4238 49.6488C57.6714 51.6513 56.4909 53.4655 54.9649 54.9647C53.4658 56.4907 51.6517 57.6712 49.6492 58.4236C47.7383 59.1646 45.5604 59.6686 42.3686 59.8186L40.2327 59.9085L39.6507 59.9265C38.1718 59.9685 36.4589 59.9895 33.084 59.9955L30.8461 59.9985H26.9193C24.7302 60.0063 22.5411 59.9833 20.3527 59.9295L19.7707 59.9115C19.0586 59.8846 18.3466 59.8536 17.6348 59.8186C14.443 59.6686 12.2651 59.1646 10.3512 58.4236C8.34978 57.6708 6.5367 56.4903 5.03845 54.9647C3.51136 53.4658 2.32992 51.6516 1.57663 49.6488C0.835665 47.7378 0.331689 45.5599 0.181697 42.365L0.0917017 40.229L0.0767028 39.647C0.0214037 37.4595 -0.0035977 35.2714 0.0017063 33.0832V26.9153C-0.00659696 24.7272 0.0154043 22.539 0.0677032 20.3515L0.088702 19.7695C0.112701 19.0945 0.142699 18.4316 0.178697 17.6336C0.32869 14.4386 0.832664 12.2637 1.57363 10.3497C2.32867 8.34639 3.5122 6.53215 5.04145 5.03388C6.53884 3.50856 8.35085 2.32816 10.3512 1.57496C12.2651 0.83398 14.44 0.329992 17.6348 0.179995C18.4328 0.143996 19.0987 0.113997 19.7707 0.0899977L20.3527 0.071998C22.5401 0.0186977 24.7282 -0.00430399 26.9163 0.00299971L33.084 0ZM30.0002 14.9996C26.0221 14.9996 22.207 16.58 19.3941 19.3929C16.5812 22.2059 15.001 26.0211 15.001 29.9993C15.001 33.9774 16.5812 37.7926 19.3941 40.6056C22.207 43.4186 26.0221 44.9989 30.0002 44.9989C33.9782 44.9989 37.7934 43.4186 40.6063 40.6056C43.4192 37.7926 44.9994 33.9774 44.9994 29.9993C44.9994 26.0211 43.4192 22.2059 40.6063 19.3929C37.7934 16.58 33.9782 14.9996 30.0002 14.9996ZM30.0002 20.9995C31.182 20.9993 32.3523 21.2319 33.4443 21.684C34.5362 22.1361 35.5284 22.7988 36.3643 23.6344C37.2001 24.47 37.8632 25.462 38.3156 26.5538C38.7681 27.6457 39.001 28.8159 39.0012 29.9978C39.0014 31.1796 38.7689 32.35 38.3168 33.442C37.8647 34.5339 37.2019 35.5262 36.3664 36.362C35.5308 37.1979 34.5389 37.8609 33.4471 38.3134C32.3553 38.7659 31.185 38.9989 30.0032 38.9991C27.6164 38.9991 25.3273 38.0509 23.6396 36.3631C21.9518 34.6753 21.0036 32.3862 21.0036 29.9993C21.0036 27.6124 21.9518 25.3233 23.6396 23.6355C25.3273 21.9477 27.6164 20.9995 30.0032 20.9995M45.7524 10.4997C44.7579 10.4997 43.8041 10.8948 43.1009 11.5981C42.3977 12.3013 42.0026 13.2551 42.0026 14.2497C42.0026 15.2442 42.3977 16.198 43.1009 16.9012C43.8041 17.6045 44.7579 17.9996 45.7524 17.9996C46.7469 17.9996 47.7007 17.6045 48.4039 16.9012C49.1071 16.198 49.5022 15.2442 49.5022 14.2497C49.5022 13.2551 49.1071 12.3013 48.4039 11.5981C47.7007 10.8948 46.7469 10.4997 45.7524 10.4997Z" fill="#CFCFCF"/>
</svg>
