<svg width="682" height="348" viewBox="0 0 682 348" fill="none" xmlns="http://www.w3.org/2000/svg">
<path d="M151.192 150.353C151.192 168.729 147.882 183.183 141.262 193.716C134.642 204.248 125.903 209.962 115.046 210.859C128.154 247.834 139.607 285.706 149.404 324.474L91.4127 326.827C90.3535 308.675 88.7646 291.98 86.6462 276.742C84.5278 261.504 81.5488 245.481 77.7092 228.674C73.3399 229.122 68.9707 229.682 64.6014 230.355C60.3646 231.027 56.1278 231.587 51.8909 232.035L52.884 308.339C45.3371 309.011 37.7902 309.348 30.2434 309.348C26.4037 309.348 22.6303 309.236 18.9231 309.011C15.3483 308.787 11.7072 308.339 8 307.667C8.92681 287.05 9.78741 266.546 10.5818 246.153C11.3762 225.537 11.8396 205.032 11.972 184.64C12.3692 148.337 12.965 112.034 13.7594 75.7304C26.2051 74.61 38.5846 73.3774 50.8979 72.0329C63.3436 70.6883 75.7893 70.016 88.235 70.016C91.4127 70.016 94.8551 70.1281 98.5623 70.3522C102.27 70.5763 105.977 71.2486 109.684 72.369C113.524 73.2654 117.165 74.61 120.607 76.4027C124.182 78.1955 127.36 80.5484 130.14 83.4616C136.892 90.6326 142.056 100.269 145.631 112.37C149.338 124.247 151.192 136.908 151.192 150.353ZM105.116 144.975C105.116 143.182 105.05 140.717 104.918 137.58C104.918 134.443 104.785 131.306 104.52 128.168C104.256 124.807 103.858 121.782 103.329 119.092C102.799 116.179 102.071 114.05 101.144 112.706C100.482 111.809 99.3567 111.137 97.7679 110.689C96.1791 110.241 94.4579 109.905 92.6043 109.681C90.8831 109.232 89.1618 109.008 87.4406 109.008C85.8518 108.784 84.7264 108.672 84.0644 108.672C78.7684 108.672 73.5385 109.12 68.3749 110.017C63.3436 110.913 58.3124 112.034 53.2812 113.378L58.6434 178.589C61.5562 179.71 64.6015 180.494 67.7791 180.942C70.9567 181.39 74.0681 181.614 77.1134 181.614C78.4374 181.614 80.3572 181.502 82.8728 181.278C85.5208 181.054 88.1688 180.606 90.8169 179.934C93.5973 179.261 96.1129 178.365 98.3637 177.245C100.747 175.9 102.402 174.219 103.329 172.203C103.726 171.306 104.057 169.625 104.322 167.16C104.587 164.471 104.719 161.782 104.719 159.093C104.851 156.18 104.918 153.379 104.918 150.69C105.05 148 105.116 146.096 105.116 144.975Z" fill="#2C3E50"/>
<path d="M265.388 119.429C252.412 120.549 239.503 121.782 226.66 123.126C213.95 124.247 201.107 125.703 188.132 127.496L187.734 154.051L238.974 149.009C239.636 156.628 240.099 164.135 240.364 171.53C240.761 178.925 240.96 186.432 240.96 194.052C240.96 197.189 240.893 200.438 240.761 203.8C240.761 207.161 240.761 210.41 240.761 213.548L193.097 228.002L196.076 269.683C206.138 268.563 216.134 266.994 226.065 264.977C236.127 262.736 246.256 260.831 256.451 259.263C257.377 270.467 258.304 281.784 259.231 293.213C260.158 304.418 261.482 315.398 263.203 326.155C244.402 325.931 225.734 325.931 207.197 326.155C188.661 326.603 169.993 326.827 151.192 326.827C151.589 300.608 152.052 274.501 152.582 248.506C153.112 222.512 153.376 196.293 153.376 169.85V163.463C153.376 148.225 153.244 133.098 152.979 118.084C152.714 102.846 152.45 87.4953 152.185 72.0329C162.644 72.257 173.038 72.369 183.365 72.369C193.825 72.1449 204.351 72.0329 214.943 72.0329C223.019 72.0329 231.03 72.369 238.974 73.0413C247.05 73.4895 255.127 74.0497 263.203 74.722L265.388 119.429Z" fill="#2C3E50"/>
<path d="M418.962 219.262C418.962 238.982 418.896 258.478 418.763 277.75C418.763 296.798 418.697 316.182 418.565 335.903C410.356 335.23 402.213 334.894 394.137 334.894C390.165 334.894 386.127 335.23 382.022 335.903C378.05 336.575 374.078 337.471 370.106 338.592C365.075 319.992 360.044 301.616 355.012 283.465C349.981 265.089 344.95 246.602 339.919 228.002C336.211 214.332 332.703 200.662 329.393 186.993C326.083 173.323 322.773 159.541 319.463 145.648C318.271 175.9 317.013 206.041 315.689 236.069C314.498 265.874 313.505 295.902 312.71 326.155L269.812 324.138C269.15 281.112 268.554 238.31 268.025 195.732C267.495 153.155 266.568 110.353 265.244 67.3269L342.898 66.6547C345.546 77.8593 347.995 89.176 350.246 100.605C352.629 111.809 354.88 123.238 356.998 134.891C360.044 152.594 363.486 170.186 367.326 187.665C371.165 204.92 375.005 222.287 378.844 239.767C378.712 211.755 378.381 183.855 377.852 156.068C377.454 128.28 377.123 100.269 376.858 72.0329L416.976 80.1003C417.506 103.406 417.969 126.6 418.366 149.681C418.763 172.763 418.962 195.956 418.962 219.262Z" fill="#2C3E50"/>
<path d="M599.749 195.732C599.749 198.646 599.749 201.559 599.749 204.472C599.749 207.161 599.683 209.85 599.55 212.539C599.418 214.78 599.219 218.702 598.955 224.304C598.822 229.907 598.557 236.405 598.16 243.8C597.895 250.971 597.498 258.59 596.969 266.658C596.571 274.725 596.042 282.232 595.38 289.179C594.85 295.902 594.254 301.728 593.592 306.658C592.93 311.589 592.268 314.614 591.606 315.734C587.634 322.457 582.868 327.499 577.307 330.861C571.878 333.998 566.185 336.127 560.227 337.247C554.269 338.368 548.311 338.816 542.353 338.592C536.395 338.368 530.834 338.256 525.671 338.256C523.949 338.256 521.037 338.256 516.932 338.256C512.828 338.032 508.127 337.807 502.831 337.583C497.668 337.359 492.239 337.023 486.546 336.575C480.853 335.903 475.491 335.118 470.459 334.222C465.56 333.101 461.257 331.869 457.55 330.524C453.975 328.956 451.725 327.051 450.798 324.81C449.739 322.345 448.812 319.656 448.017 316.743C447.223 313.829 446.495 311.028 445.833 308.339C444.111 300.944 442.523 293.101 441.066 284.809C439.61 276.294 438.352 267.666 437.293 258.927C436.366 249.963 435.572 241.111 434.91 232.372C434.38 223.632 434.115 215.34 434.115 207.497C434.115 203.239 434.314 197.749 434.711 191.026C435.108 184.079 435.638 176.684 436.3 168.841C436.962 160.774 437.756 152.594 438.683 144.303C439.61 136.011 440.603 128.28 441.662 121.109C442.854 113.938 444.111 107.776 445.435 102.622C446.759 97.2434 448.216 93.6579 449.805 91.8651C451.129 90.2965 453.578 88.8399 457.153 87.4953C460.728 86.1507 464.898 85.0303 469.665 84.1339C474.431 83.0134 479.529 82.1171 484.957 81.4448C490.386 80.5484 495.549 79.8761 500.448 79.428C505.347 78.7557 509.782 78.3075 513.754 78.0834C517.726 77.8593 520.639 77.7473 522.493 77.7473C525.009 77.7473 528.385 77.9713 532.622 78.4195C536.991 78.8677 541.691 79.652 546.722 80.7725C551.754 81.6689 556.851 82.9014 562.015 84.47C567.178 85.8146 571.945 87.4953 576.314 89.5121C580.816 91.529 584.655 93.7699 587.833 96.2349C591.01 98.7 592.997 101.389 593.791 104.302C594.453 106.767 595.049 110.353 595.578 115.059C596.24 119.541 596.77 124.695 597.167 130.521C597.564 136.348 597.895 142.51 598.16 149.009C598.557 155.508 598.822 161.782 598.955 167.833C599.219 173.659 599.418 179.037 599.55 183.967C599.683 188.897 599.749 192.819 599.749 195.732ZM564.199 206.825C564.199 202.343 564.067 197.637 563.802 192.707C563.537 187.553 562.677 183.071 561.22 179.261C560.161 176.572 557.579 174.443 553.475 172.875C549.503 171.306 545.067 170.186 540.168 169.513C535.402 168.841 530.768 168.505 526.266 168.505C521.765 168.281 518.587 168.169 516.733 168.169C515.277 168.169 512.695 168.393 508.988 168.841C505.413 169.289 501.574 170.074 497.469 171.194C493.497 172.09 489.79 173.323 486.347 174.892C482.905 176.236 480.787 177.917 479.992 179.934C479.198 181.502 478.536 184.528 478.006 189.01C477.609 193.267 477.212 197.973 476.815 203.127C476.55 208.057 476.351 212.875 476.219 217.581C476.086 222.063 476.02 225.313 476.02 227.329C476.02 229.122 476.02 231.811 476.02 235.397C476.153 238.982 476.351 242.68 476.616 246.489C476.881 250.299 477.146 253.885 477.41 257.246C477.808 260.607 478.337 263.072 478.999 264.641C479.396 265.761 480.588 266.77 482.574 267.666C484.56 268.563 486.943 269.459 489.724 270.355C492.637 271.028 495.682 271.588 498.859 272.036C502.037 272.484 505.082 272.932 507.995 273.381C511.04 273.605 513.688 273.829 515.939 274.053C518.322 274.053 519.977 274.053 520.904 274.053C522.493 274.053 525.207 273.829 529.047 273.381C533.019 272.932 537.123 272.26 541.36 271.364C545.729 270.243 549.701 269.011 553.276 267.666C556.983 266.098 559.367 264.305 560.426 262.288C561.22 260.719 561.882 257.47 562.412 252.54C562.941 247.386 563.339 241.896 563.603 236.069C563.868 230.019 564.001 224.304 564.001 218.926C564.133 213.324 564.199 209.29 564.199 206.825Z" fill="#2C3E50"/>
<path d="M151.192 150.353C151.192 168.729 147.882 183.183 141.262 193.716C134.642 204.248 125.903 209.962 115.046 210.859C128.154 247.834 139.607 285.706 149.404 324.474L91.4127 326.827C90.3535 308.675 88.7646 291.98 86.6462 276.742C84.5278 261.504 81.5488 245.481 77.7092 228.674C73.3399 229.122 68.9707 229.682 64.6014 230.355C60.3646 231.027 56.1278 231.587 51.8909 232.035L52.884 308.339C45.3371 309.011 37.7902 309.348 30.2434 309.348C26.4037 309.348 22.6303 309.236 18.9231 309.011C15.3483 308.787 11.7072 308.339 8 307.667C8.92681 287.05 9.78741 266.546 10.5818 246.153C11.3762 225.537 11.8396 205.032 11.972 184.64C12.3692 148.337 12.965 112.034 13.7594 75.7304C26.2051 74.61 38.5846 73.3774 50.8979 72.0329C63.3436 70.6883 75.7893 70.016 88.235 70.016C91.4127 70.016 94.8551 70.1281 98.5623 70.3522C102.27 70.5763 105.977 71.2486 109.684 72.369C113.524 73.2654 117.165 74.61 120.607 76.4027C124.182 78.1955 127.36 80.5484 130.14 83.4616C136.892 90.6326 142.056 100.269 145.631 112.37C149.338 124.247 151.192 136.908 151.192 150.353ZM105.116 144.975C105.116 143.182 105.05 140.717 104.918 137.58C104.918 134.443 104.785 131.306 104.52 128.168C104.256 124.807 103.858 121.782 103.329 119.092C102.799 116.179 102.071 114.05 101.144 112.706C100.482 111.809 99.3567 111.137 97.7679 110.689C96.1791 110.241 94.4579 109.905 92.6043 109.681C90.8831 109.232 89.1618 109.008 87.4406 109.008C85.8518 108.784 84.7264 108.672 84.0644 108.672C78.7684 108.672 73.5385 109.12 68.3749 110.017C63.3436 110.913 58.3124 112.034 53.2812 113.378L58.6434 178.589C61.5562 179.71 64.6015 180.494 67.7791 180.942C70.9567 181.39 74.0681 181.614 77.1134 181.614C78.4374 181.614 80.3572 181.502 82.8728 181.278C85.5208 181.054 88.1688 180.606 90.8169 179.934C93.5973 179.261 96.1129 178.365 98.3637 177.245C100.747 175.9 102.402 174.219 103.329 172.203C103.726 171.306 104.057 169.625 104.322 167.16C104.587 164.471 104.719 161.782 104.719 159.093C104.851 156.18 104.918 153.379 104.918 150.69C105.05 148 105.116 146.096 105.116 144.975Z" stroke="white" stroke-width="14.3479"/>
<path d="M265.388 119.429C252.412 120.549 239.503 121.782 226.66 123.126C213.95 124.247 201.107 125.703 188.132 127.496L187.734 154.051L238.974 149.009C239.636 156.628 240.099 164.135 240.364 171.53C240.761 178.925 240.96 186.432 240.96 194.052C240.96 197.189 240.893 200.438 240.761 203.8C240.761 207.161 240.761 210.41 240.761 213.548L193.097 228.002L196.076 269.683C206.138 268.563 216.134 266.994 226.065 264.977C236.127 262.736 246.256 260.831 256.451 259.263C257.377 270.467 258.304 281.784 259.231 293.213C260.158 304.418 261.482 315.398 263.203 326.155C244.402 325.931 225.734 325.931 207.197 326.155C188.661 326.603 169.993 326.827 151.192 326.827C151.589 300.608 152.052 274.501 152.582 248.506C153.112 222.512 153.376 196.293 153.376 169.85V163.463C153.376 148.225 153.244 133.098 152.979 118.084C152.714 102.846 152.45 87.4953 152.185 72.0329C162.644 72.257 173.038 72.369 183.365 72.369C193.825 72.1449 204.351 72.0329 214.943 72.0329C223.019 72.0329 231.03 72.369 238.974 73.0413C247.05 73.4895 255.127 74.0497 263.203 74.722L265.388 119.429Z" stroke="white" stroke-width="14.3479"/>
<path d="M418.962 219.262C418.962 238.982 418.896 258.478 418.763 277.75C418.763 296.798 418.697 316.182 418.565 335.903C410.356 335.23 402.213 334.894 394.137 334.894C390.165 334.894 386.127 335.23 382.022 335.903C378.05 336.575 374.078 337.471 370.106 338.592C365.075 319.992 360.044 301.616 355.012 283.465C349.981 265.089 344.95 246.602 339.919 228.002C336.211 214.332 332.703 200.662 329.393 186.993C326.083 173.323 322.773 159.541 319.463 145.648C318.271 175.9 317.013 206.041 315.689 236.069C314.498 265.874 313.505 295.902 312.71 326.155L269.812 324.138C269.15 281.112 268.554 238.31 268.025 195.732C267.495 153.155 266.568 110.353 265.244 67.3269L342.898 66.6547C345.546 77.8593 347.995 89.176 350.246 100.605C352.629 111.809 354.88 123.238 356.998 134.891C360.044 152.594 363.486 170.186 367.326 187.665C371.165 204.92 375.005 222.287 378.844 239.767C378.712 211.755 378.381 183.855 377.852 156.068C377.454 128.28 377.123 100.269 376.858 72.0329L416.976 80.1003C417.506 103.406 417.969 126.6 418.366 149.681C418.763 172.763 418.962 195.956 418.962 219.262Z" stroke="white" stroke-width="14.3479"/>
<path d="M599.749 195.732C599.749 198.646 599.749 201.559 599.749 204.472C599.749 207.161 599.683 209.85 599.55 212.539C599.418 214.78 599.219 218.702 598.955 224.304C598.822 229.907 598.557 236.405 598.16 243.8C597.895 250.971 597.498 258.59 596.969 266.658C596.571 274.725 596.042 282.232 595.38 289.179C594.85 295.902 594.254 301.728 593.592 306.658C592.93 311.589 592.268 314.614 591.606 315.734C587.634 322.457 582.868 327.499 577.307 330.861C571.878 333.998 566.185 336.127 560.227 337.247C554.269 338.368 548.311 338.816 542.353 338.592C536.395 338.368 530.834 338.256 525.671 338.256C523.949 338.256 521.037 338.256 516.932 338.256C512.828 338.032 508.127 337.807 502.831 337.583C497.668 337.359 492.239 337.023 486.546 336.575C480.853 335.903 475.491 335.118 470.459 334.222C465.56 333.101 461.257 331.869 457.55 330.524C453.975 328.956 451.725 327.051 450.798 324.81C449.739 322.345 448.812 319.656 448.017 316.743C447.223 313.829 446.495 311.028 445.833 308.339C444.111 300.944 442.523 293.101 441.066 284.809C439.61 276.294 438.352 267.666 437.293 258.927C436.366 249.963 435.572 241.111 434.91 232.372C434.38 223.632 434.115 215.34 434.115 207.497C434.115 203.239 434.314 197.749 434.711 191.026C435.108 184.079 435.638 176.684 436.3 168.841C436.962 160.774 437.756 152.594 438.683 144.303C439.61 136.011 440.603 128.28 441.662 121.109C442.854 113.938 444.111 107.776 445.435 102.622C446.759 97.2434 448.216 93.6579 449.805 91.8651C451.129 90.2965 453.578 88.8399 457.153 87.4953C460.728 86.1507 464.898 85.0303 469.665 84.1339C474.431 83.0134 479.529 82.1171 484.957 81.4448C490.386 80.5484 495.549 79.8761 500.448 79.428C505.347 78.7557 509.782 78.3075 513.754 78.0834C517.726 77.8593 520.639 77.7473 522.493 77.7473C525.009 77.7473 528.385 77.9713 532.622 78.4195C536.991 78.8677 541.691 79.652 546.722 80.7725C551.754 81.6689 556.851 82.9014 562.015 84.47C567.178 85.8146 571.945 87.4953 576.314 89.5121C580.816 91.529 584.655 93.7699 587.833 96.2349C591.01 98.7 592.997 101.389 593.791 104.302C594.453 106.767 595.049 110.353 595.578 115.059C596.24 119.541 596.77 124.695 597.167 130.521C597.564 136.348 597.895 142.51 598.16 149.009C598.557 155.508 598.822 161.782 598.955 167.833C599.219 173.659 599.418 179.037 599.55 183.967C599.683 188.897 599.749 192.819 599.749 195.732ZM564.199 206.825C564.199 202.343 564.067 197.637 563.802 192.707C563.537 187.553 562.677 183.071 561.22 179.261C560.161 176.572 557.579 174.443 553.475 172.875C549.503 171.306 545.067 170.186 540.168 169.513C535.402 168.841 530.768 168.505 526.266 168.505C521.765 168.281 518.587 168.169 516.733 168.169C515.277 168.169 512.695 168.393 508.988 168.841C505.413 169.289 501.574 170.074 497.469 171.194C493.497 172.09 489.79 173.323 486.347 174.892C482.905 176.236 480.787 177.917 479.992 179.934C479.198 181.502 478.536 184.528 478.006 189.01C477.609 193.267 477.212 197.973 476.815 203.127C476.55 208.057 476.351 212.875 476.219 217.581C476.086 222.063 476.02 225.313 476.02 227.329C476.02 229.122 476.02 231.811 476.02 235.397C476.153 238.982 476.351 242.68 476.616 246.489C476.881 250.299 477.146 253.885 477.41 257.246C477.808 260.607 478.337 263.072 478.999 264.641C479.396 265.761 480.588 266.77 482.574 267.666C484.56 268.563 486.943 269.459 489.724 270.355C492.637 271.028 495.682 271.588 498.859 272.036C502.037 272.484 505.082 272.932 507.995 273.381C511.04 273.605 513.688 273.829 515.939 274.053C518.322 274.053 519.977 274.053 520.904 274.053C522.493 274.053 525.207 273.829 529.047 273.381C533.019 272.932 537.123 272.26 541.36 271.364C545.729 270.243 549.701 269.011 553.276 267.666C556.983 266.098 559.367 264.305 560.426 262.288C561.22 260.719 561.882 257.47 562.412 252.54C562.941 247.386 563.339 241.896 563.603 236.069C563.868 230.019 564.001 224.304 564.001 218.926C564.133 213.324 564.199 209.29 564.199 206.825Z" stroke="white" stroke-width="14.3479"/>
<path d="M402.203 136.69C387.101 148.355 381.873 160.992 383.325 162.936C387.682 174.601 394.943 169.352 412.369 165.852C434.152 161.478 502.404 158.562 518.378 157.104C531.157 155.937 597.28 162.45 628.744 165.852C714.713 165.852 668.437 142.522 634.553 130.857C640.362 123.567 620.031 4 518.378 4C500.569 4 483.526 5.45813 476.265 12.7488C466.1 22.9557 469.004 20.0394 450.126 31.7044C410.369 66.3385 397.112 118.287 402.203 136.69Z" fill="#E67E22" stroke="#2C3E50" stroke-width="7.17393"/>
<path d="M522.196 22.9557L505.309 27.9141C534.861 50.2267 539.083 75.0186 551.748 92.3729C566.623 112.754 551.748 37.8308 522.196 22.9557Z" fill="white" stroke="#F8F9FA" stroke-width="7.17393"/>
<path d="M618.164 130.857L487.882 140.415C496.379 144.875 557.554 149.59 587.009 148.061C616.464 146.531 620.052 135.954 618.164 130.857Z" fill="#F8F9FA" stroke="#F8F9FA" stroke-width="7.17393"/>
</svg>
