<svg width="36" height="24" viewBox="0 0 36 24" fill="none" xmlns="http://www.w3.org/2000/svg">
<path d="M2.66667 23.5C2.12362 23.5 1.66873 23.316 1.30201 22.948C0.935285 22.58 0.751284 22.1251 0.750007 21.5833C0.748729 21.0416 0.932729 20.5867 1.30201 20.2187C1.67128 19.8507 2.12617 19.6667 2.66667 19.6667H33.3333C33.8764 19.6667 34.3319 19.8507 34.6999 20.2187C35.0679 20.5867 35.2513 21.0416 35.25 21.5833C35.2487 22.1251 35.0647 22.5806 34.698 22.9499C34.3313 23.3192 33.8764 23.5026 33.3333 23.5H2.66667ZM2.66667 13.9167C2.12362 13.9167 1.66873 13.7327 1.30201 13.3647C0.935285 12.9967 0.751284 12.5418 0.750007 12C0.748729 11.4582 0.932729 11.0033 1.30201 10.6353C1.67128 10.2673 2.12617 10.0833 2.66667 10.0833H33.3333C33.8764 10.0833 34.3319 10.2673 34.6999 10.6353C35.0679 11.0033 35.2513 11.4582 35.25 12C35.2487 12.5418 35.0647 12.9973 34.698 13.3666C34.3313 13.7359 33.8764 13.9192 33.3333 13.9167H2.66667ZM2.66667 4.33333C2.12362 4.33333 1.66873 4.14933 1.30201 3.78133C0.935285 3.41333 0.751284 2.95844 0.750007 2.41667C0.748729 1.87489 0.932729 1.42 1.30201 1.052C1.67128 0.684 2.12617 0.5 2.66667 0.5H33.3333C33.8764 0.5 34.3319 0.684 34.6999 1.052C35.0679 1.42 35.2513 1.87489 35.25 2.41667C35.2487 2.95844 35.0647 3.41397 34.698 3.78325C34.3313 4.15253 33.8764 4.33589 33.3333 4.33333H2.66667Z" fill="black"/>
</svg>
