<svg width="39" height="40" viewBox="0 0 39 40" fill="none" xmlns="http://www.w3.org/2000/svg">
<path d="M12.2917 5.52084C13.125 5.52084 16.4583 13.0208 16.4583 13.8542C16.4583 15.5208 13.9583 17.1875 13.125 18.8542C12.2917 20.5208 13.9583 22.1875 15.625 23.8542C16.275 24.5042 18.9583 27.1875 20.625 26.3542C22.2917 25.5208 23.9583 23.0208 25.625 23.0208C26.4583 23.0208 33.9583 26.3542 33.9583 27.1875C33.9583 30.5208 31.4583 33.0208 28.9583 33.8542C26.4583 34.6875 24.7917 34.6875 21.4583 33.8542C18.125 33.0208 15.625 32.1875 11.4583 28.0208C7.29167 23.8542 6.45833 21.3542 5.625 18.0208C4.79167 14.6875 4.79167 13.0208 5.625 10.5208C6.45833 8.02084 8.95833 5.52084 12.2917 5.52084Z" stroke="black" stroke-width="2" stroke-linecap="round" stroke-linejoin="round"/>
</svg>
