<svg width="58" height="56" viewBox="0 0 58 56" fill="none" xmlns="http://www.w3.org/2000/svg">
<path d="M54.1652 51.2752C54.1652 48.8824 49.7996 42.1948 49.7996 42.1948C49.7996 42.1948 45.368 48.8824 45.368 51.2752C45.368 53.6632 47.3384 55.6 49.7672 55.6C52.196 55.6 54.1652 53.6632 54.1652 51.2752ZM22.5992 13.8052H13.802V5.13282H16.2008V0.400024H0.199997V5.13282H2.6V18.5368C2.6 22.0216 5.4656 24.8452 8.9996 24.8452H22.5992V27.2116H27.4004V11.4412H22.5992V13.8052ZM55.3976 33.5188V20.1148C55.3976 16.6312 52.5332 13.8064 49.0028 13.8064H35.4008V11.4424H30.5996V27.214H35.4008V24.8464H44.1992V33.5188H41.8028V38.2516H57.8V33.5188H55.3976Z" fill="black"/>
</svg>
