<svg width="86" height="60" viewBox="0 0 86 60" fill="none" xmlns="http://www.w3.org/2000/svg">
<path d="M34.4 42.8571L56.717 30L34.4 17.1429V42.8571ZM84.108 9.3C84.667 11.3143 85.054 14.0143 85.312 17.4429C85.613 20.8714 85.742 23.8286 85.742 26.4L86 30C86 39.3857 85.312 46.2857 84.108 50.7C83.033 54.5571 80.539 57.0429 76.669 58.1143C74.648 58.6714 70.95 59.0571 65.274 59.3143C59.684 59.6143 54.567 59.7429 49.837 59.7429L43 60C24.983 60 13.76 59.3143 9.331 58.1143C5.461 57.0429 2.967 54.5571 1.892 50.7C1.333 48.6857 0.946 45.9857 0.688 42.5571C0.387 39.1286 0.258 36.1714 0.258 33.6L0 30C0 20.6143 0.688 13.7143 1.892 9.3C2.967 5.44286 5.461 2.95714 9.331 1.88571C11.352 1.32857 15.05 0.942856 20.726 0.685714C26.316 0.385714 31.433 0.257143 36.163 0.257143L43 0C61.017 0 72.24 0.685715 76.669 1.88571C80.539 2.95714 83.033 5.44286 84.108 9.3Z" fill="#CFCFCF"/>
</svg>
